<mxfile host="Electron" modified="2023-06-04T19:22:53.125Z" agent="Mozilla/5.0 (X11; Linux x86_64) AppleWebKit/537.36 (KHTML, like Gecko) draw.io/21.2.8 Chrome/106.0.5249.199 Electron/21.4.4 Safari/537.36" etag="K5cHBU-ebpfbjj12p4l_" version="21.2.8" type="device">
  <diagram name="Page-1" id="4cxJuNA6jxFFfl-4qjEc">
    <mxGraphModel dx="1434" dy="837" grid="1" gridSize="10" guides="1" tooltips="1" connect="1" arrows="1" fold="1" page="1" pageScale="1" pageWidth="850" pageHeight="1100" math="0" shadow="0">
      <root>
        <mxCell id="0" />
        <mxCell id="1" parent="0" />
        <mxCell id="4L3qG8AeQFY43rI7TySw-1" value="Gestion Equipo" style="shape=umlFrame;whiteSpace=wrap;html=1;pointerEvents=0;fillColor=#dae8fc;strokeColor=#6c8ebf;" vertex="1" parent="1">
          <mxGeometry x="105" y="250" width="535" height="490" as="geometry" />
        </mxCell>
        <mxCell id="4L3qG8AeQFY43rI7TySw-2" value="Administrador" style="shape=umlActor;verticalLabelPosition=bottom;verticalAlign=top;html=1;" vertex="1" parent="1">
          <mxGeometry x="40" y="392" width="30" height="60" as="geometry" />
        </mxCell>
        <mxCell id="4L3qG8AeQFY43rI7TySw-3" value="Crear Equipo" style="ellipse;whiteSpace=wrap;html=1;fillColor=#d5e8d4;strokeColor=#82b366;" vertex="1" parent="1">
          <mxGeometry x="190" y="272" width="110" height="70" as="geometry" />
        </mxCell>
        <mxCell id="4L3qG8AeQFY43rI7TySw-4" value="Borrar Equipo" style="ellipse;whiteSpace=wrap;html=1;fillColor=#d5e8d4;strokeColor=#82b366;" vertex="1" parent="1">
          <mxGeometry x="190" y="362" width="110" height="70" as="geometry" />
        </mxCell>
        <mxCell id="4L3qG8AeQFY43rI7TySw-5" value="Editar Equipo" style="ellipse;whiteSpace=wrap;html=1;fillColor=#d5e8d4;strokeColor=#82b366;" vertex="1" parent="1">
          <mxGeometry x="190" y="452" width="110" height="70" as="geometry" />
        </mxCell>
        <mxCell id="4L3qG8AeQFY43rI7TySw-6" value="" style="endArrow=none;html=1;rounded=0;entryX=0.018;entryY=0.714;entryDx=0;entryDy=0;entryPerimeter=0;" edge="1" parent="1" source="4L3qG8AeQFY43rI7TySw-2" target="4L3qG8AeQFY43rI7TySw-3">
          <mxGeometry width="50" height="50" relative="1" as="geometry">
            <mxPoint x="60" y="362" as="sourcePoint" />
            <mxPoint x="110" y="312" as="targetPoint" />
          </mxGeometry>
        </mxCell>
        <mxCell id="4L3qG8AeQFY43rI7TySw-7" value="" style="endArrow=none;html=1;rounded=0;entryX=0;entryY=0.5;entryDx=0;entryDy=0;exitX=1;exitY=0.3333333333333333;exitDx=0;exitDy=0;exitPerimeter=0;" edge="1" parent="1" source="4L3qG8AeQFY43rI7TySw-2" target="4L3qG8AeQFY43rI7TySw-4">
          <mxGeometry width="50" height="50" relative="1" as="geometry">
            <mxPoint x="80" y="420" as="sourcePoint" />
            <mxPoint x="202" y="322" as="targetPoint" />
          </mxGeometry>
        </mxCell>
        <mxCell id="4L3qG8AeQFY43rI7TySw-8" value="" style="endArrow=none;html=1;rounded=0;entryX=0;entryY=0.4;entryDx=0;entryDy=0;entryPerimeter=0;exitX=1;exitY=0.3333333333333333;exitDx=0;exitDy=0;exitPerimeter=0;" edge="1" parent="1" source="4L3qG8AeQFY43rI7TySw-2" target="4L3qG8AeQFY43rI7TySw-5">
          <mxGeometry width="50" height="50" relative="1" as="geometry">
            <mxPoint x="120" y="512" as="sourcePoint" />
            <mxPoint x="170" y="462" as="targetPoint" />
          </mxGeometry>
        </mxCell>
        <mxCell id="4L3qG8AeQFY43rI7TySw-9" value="Buscar Equipo" style="ellipse;whiteSpace=wrap;html=1;fillColor=#d5e8d4;strokeColor=#82b366;" vertex="1" parent="1">
          <mxGeometry x="400" y="412" width="110" height="70" as="geometry" />
        </mxCell>
        <mxCell id="4L3qG8AeQFY43rI7TySw-10" value="" style="endArrow=classic;html=1;rounded=0;exitX=0.973;exitY=0.657;exitDx=0;exitDy=0;exitPerimeter=0;" edge="1" parent="1" source="4L3qG8AeQFY43rI7TySw-4" target="4L3qG8AeQFY43rI7TySw-9">
          <mxGeometry width="50" height="50" relative="1" as="geometry">
            <mxPoint x="280" y="402" as="sourcePoint" />
            <mxPoint x="330" y="352" as="targetPoint" />
          </mxGeometry>
        </mxCell>
        <mxCell id="4L3qG8AeQFY43rI7TySw-11" value="&amp;lt;&amp;lt;includes&amp;gt;&amp;gt;" style="text;html=1;strokeColor=none;fillColor=none;align=center;verticalAlign=middle;whiteSpace=wrap;rounded=0;" vertex="1" parent="1">
          <mxGeometry x="330" y="392" width="60" height="30" as="geometry" />
        </mxCell>
        <mxCell id="4L3qG8AeQFY43rI7TySw-12" value="" style="endArrow=classic;html=1;rounded=0;exitX=0.955;exitY=0.243;exitDx=0;exitDy=0;entryX=0.009;entryY=0.7;entryDx=0;entryDy=0;exitPerimeter=0;entryPerimeter=0;" edge="1" parent="1" source="4L3qG8AeQFY43rI7TySw-5" target="4L3qG8AeQFY43rI7TySw-9">
          <mxGeometry width="50" height="50" relative="1" as="geometry">
            <mxPoint x="307" y="471" as="sourcePoint" />
            <mxPoint x="414" y="497" as="targetPoint" />
          </mxGeometry>
        </mxCell>
        <mxCell id="4L3qG8AeQFY43rI7TySw-13" value="&amp;lt;&amp;lt;includes&amp;gt;&amp;gt;" style="text;html=1;strokeColor=none;fillColor=none;align=center;verticalAlign=middle;whiteSpace=wrap;rounded=0;" vertex="1" parent="1">
          <mxGeometry x="310" y="432" width="60" height="30" as="geometry" />
        </mxCell>
        <mxCell id="4L3qG8AeQFY43rI7TySw-14" value="Exportar Equipo" style="ellipse;whiteSpace=wrap;html=1;fillColor=#d5e8d4;strokeColor=#82b366;" vertex="1" parent="1">
          <mxGeometry x="190" y="540" width="110" height="70" as="geometry" />
        </mxCell>
        <mxCell id="4L3qG8AeQFY43rI7TySw-15" value="" style="endArrow=classic;html=1;rounded=0;exitX=1;exitY=0;exitDx=0;exitDy=0;entryX=0.255;entryY=0.957;entryDx=0;entryDy=0;entryPerimeter=0;" edge="1" parent="1" source="4L3qG8AeQFY43rI7TySw-14" target="4L3qG8AeQFY43rI7TySw-9">
          <mxGeometry width="50" height="50" relative="1" as="geometry">
            <mxPoint x="307" y="559" as="sourcePoint" />
            <mxPoint x="416" y="560" as="targetPoint" />
          </mxGeometry>
        </mxCell>
        <mxCell id="4L3qG8AeQFY43rI7TySw-16" value="&amp;lt;&amp;lt;includes&amp;gt;&amp;gt;" style="text;html=1;strokeColor=none;fillColor=none;align=center;verticalAlign=middle;whiteSpace=wrap;rounded=0;" vertex="1" parent="1">
          <mxGeometry x="300" y="492" width="60" height="30" as="geometry" />
        </mxCell>
        <mxCell id="4L3qG8AeQFY43rI7TySw-17" value="Usuario" style="shape=umlActor;verticalLabelPosition=bottom;verticalAlign=top;html=1;" vertex="1" parent="1">
          <mxGeometry x="40" y="640" width="30" height="60" as="geometry" />
        </mxCell>
        <mxCell id="4L3qG8AeQFY43rI7TySw-18" value="" style="endArrow=none;html=1;rounded=0;entryX=0.064;entryY=0.8;entryDx=0;entryDy=0;entryPerimeter=0;" edge="1" parent="1" source="4L3qG8AeQFY43rI7TySw-17" target="4L3qG8AeQFY43rI7TySw-14">
          <mxGeometry width="50" height="50" relative="1" as="geometry">
            <mxPoint x="90" y="700" as="sourcePoint" />
            <mxPoint x="140" y="650" as="targetPoint" />
          </mxGeometry>
        </mxCell>
        <mxCell id="4L3qG8AeQFY43rI7TySw-19" value="" style="endArrow=none;html=1;rounded=0;entryX=0;entryY=0.414;entryDx=0;entryDy=0;entryPerimeter=0;exitX=1;exitY=0.3333333333333333;exitDx=0;exitDy=0;exitPerimeter=0;" edge="1" parent="1" source="4L3qG8AeQFY43rI7TySw-2" target="4L3qG8AeQFY43rI7TySw-14">
          <mxGeometry width="50" height="50" relative="1" as="geometry">
            <mxPoint x="110" y="570" as="sourcePoint" />
            <mxPoint x="160" y="520" as="targetPoint" />
          </mxGeometry>
        </mxCell>
        <mxCell id="4L3qG8AeQFY43rI7TySw-20" value="Exportar a XML" style="ellipse;whiteSpace=wrap;html=1;fillColor=#d5e8d4;strokeColor=#82b366;" vertex="1" parent="1">
          <mxGeometry x="400" y="650" width="110" height="70" as="geometry" />
        </mxCell>
        <mxCell id="4L3qG8AeQFY43rI7TySw-21" value="Exportar a JSON" style="ellipse;whiteSpace=wrap;html=1;fillColor=#d5e8d4;strokeColor=#82b366;" vertex="1" parent="1">
          <mxGeometry x="400" y="550" width="110" height="70" as="geometry" />
        </mxCell>
        <mxCell id="4L3qG8AeQFY43rI7TySw-22" value="" style="endArrow=classic;html=1;rounded=0;exitX=0;exitY=0.5;exitDx=0;exitDy=0;" edge="1" parent="1" source="4L3qG8AeQFY43rI7TySw-21">
          <mxGeometry width="50" height="50" relative="1" as="geometry">
            <mxPoint x="294" y="560" as="sourcePoint" />
            <mxPoint x="300" y="570" as="targetPoint" />
          </mxGeometry>
        </mxCell>
        <mxCell id="4L3qG8AeQFY43rI7TySw-23" value="" style="endArrow=classic;html=1;rounded=0;entryX=1;entryY=1;entryDx=0;entryDy=0;exitX=0.036;exitY=0.343;exitDx=0;exitDy=0;exitPerimeter=0;" edge="1" parent="1" source="4L3qG8AeQFY43rI7TySw-20" target="4L3qG8AeQFY43rI7TySw-14">
          <mxGeometry width="50" height="50" relative="1" as="geometry">
            <mxPoint x="320" y="720" as="sourcePoint" />
            <mxPoint x="370" y="670" as="targetPoint" />
          </mxGeometry>
        </mxCell>
        <mxCell id="4L3qG8AeQFY43rI7TySw-24" value="&amp;lt;&amp;lt;extends&amp;gt;&amp;gt;" style="text;html=1;strokeColor=none;fillColor=none;align=center;verticalAlign=middle;whiteSpace=wrap;rounded=0;" vertex="1" parent="1">
          <mxGeometry x="340" y="550" width="60" height="30" as="geometry" />
        </mxCell>
        <mxCell id="4L3qG8AeQFY43rI7TySw-25" value="&amp;lt;&amp;lt;extends&amp;gt;&amp;gt;" style="text;html=1;strokeColor=none;fillColor=none;align=center;verticalAlign=middle;whiteSpace=wrap;rounded=0;" vertex="1" parent="1">
          <mxGeometry x="350" y="620" width="60" height="30" as="geometry" />
        </mxCell>
      </root>
    </mxGraphModel>
  </diagram>
</mxfile>
